<svg width="24" height="24" viewBox="0 0 24 24" fill="none" xmlns="http://www.w3.org/2000/svg">
<path d="M12.9457 0.480185C12.9018 0.48142 12.8583 0.488675 12.8164 0.501748L5.13637 2.90175C5.03874 2.93233 4.95343 2.99329 4.89289 3.07576C4.83235 3.15823 4.79973 3.25788 4.7998 3.36018V21.1202C4.79976 21.2273 4.83555 21.3314 4.90146 21.4158C4.96737 21.5002 5.05963 21.5602 5.16355 21.5861L12.8436 23.5061C12.9143 23.5238 12.9882 23.5251 13.0596 23.5099C13.1309 23.4947 13.1979 23.4635 13.2553 23.4186C13.3128 23.3737 13.3593 23.3163 13.3913 23.2507C13.4232 23.1851 13.4398 23.1131 13.4398 23.0402V0.960185C13.4398 0.895952 13.427 0.832367 13.402 0.773198C13.377 0.714029 13.3403 0.660478 13.2943 0.615719C13.2482 0.570959 13.1936 0.535901 13.1337 0.51262C13.0739 0.489339 13.0099 0.47831 12.9457 0.480185ZM12.4798 1.61362V22.4252L5.7598 20.7452V3.71269L12.4798 1.61362ZM14.3998 2.40018V3.36018H18.2398V12.9602H19.1998V2.88019C19.1998 2.75289 19.1492 2.6308 19.0592 2.54079C18.9692 2.45077 18.8471 2.4002 18.7198 2.40018H14.3998ZM11.5198 11.5202C11.3925 11.5202 11.2704 11.596 11.1804 11.7311C11.0904 11.8661 11.0398 12.0492 11.0398 12.2402C11.0398 12.4311 11.0904 12.6143 11.1804 12.7493C11.2704 12.8843 11.3925 12.9602 11.5198 12.9602C11.6471 12.9602 11.7692 12.8843 11.8592 12.7493C11.9492 12.6143 11.9998 12.4311 11.9998 12.2402C11.9998 12.0492 11.9492 11.8661 11.8592 11.7311C11.7692 11.596 11.6471 11.5202 11.5198 11.5202ZM14.8798 13.9202C14.7525 13.9202 14.6304 13.9708 14.5404 14.0608C14.4504 14.1508 14.3998 14.2729 14.3998 14.4002V21.1202C14.3998 21.2475 14.4504 21.3696 14.5404 21.4596C14.6304 21.5496 14.7525 21.6002 14.8798 21.6002H22.5598C22.6871 21.6002 22.8092 21.5496 22.8992 21.4596C22.9892 21.3696 23.0398 21.2475 23.0398 21.1202V14.4002C23.0398 14.2729 22.9892 14.1508 22.8992 14.0608C22.8092 13.9708 22.6871 13.9202 22.5598 13.9202H14.8798ZM15.3598 14.8802H22.0798V20.6402H15.3598V14.8802ZM17.7598 15.8402C17.6962 15.8393 17.633 15.851 17.574 15.8748C17.515 15.8985 17.4613 15.9337 17.416 15.9783C17.3707 16.023 17.3347 16.0762 17.3102 16.1349C17.2856 16.1936 17.273 16.2566 17.273 16.3202C17.273 16.3838 17.2856 16.4468 17.3102 16.5055C17.3347 16.5641 17.3707 16.6174 17.416 16.662C17.4613 16.7067 17.515 16.7419 17.574 16.7656C17.633 16.7893 17.6962 16.8011 17.7598 16.8002H19.6798C19.7434 16.8011 19.8066 16.7893 19.8656 16.7656C19.9246 16.7419 19.9783 16.7067 20.0236 16.662C20.0689 16.6174 20.1049 16.5641 20.1294 16.5055C20.154 16.4468 20.1666 16.3838 20.1666 16.3202C20.1666 16.2566 20.154 16.1936 20.1294 16.1349C20.1049 16.0762 20.0689 16.023 20.0236 15.9783C19.9783 15.9337 19.9246 15.8985 19.8656 15.8748C19.8066 15.851 19.7434 15.8393 19.6798 15.8402H17.7598Z" fill="#171616"/>
</svg>
