<svg width="24" height="24" viewBox="0 0 24 24" fill="none" xmlns="http://www.w3.org/2000/svg">
<path d="M13.5654 6.87109H18.0525L22.4874 11.2538V17.9844H20.4914" stroke="#171616"/>
<path d="M8.55664 18.0889H15.2872" stroke="#171616"/>
<circle cx="17.9482" cy="17.9843" r="2.4218" stroke="#171616"/>
<path fill-rule="evenodd" clip-rule="evenodd" d="M6.05217 19.9061C7.11356 19.9061 7.97398 19.0457 7.97398 17.9843C7.97398 16.9229 7.11356 16.0625 6.05217 16.0625C4.99079 16.0625 4.13037 16.9229 4.13037 17.9843C4.13037 19.0457 4.99079 19.9061 6.05217 19.9061ZM6.05217 20.9061C7.66584 20.9061 8.97398 19.598 8.97398 17.9843C8.97398 16.3706 7.66584 15.0625 6.05217 15.0625C4.43851 15.0625 3.13037 16.3706 3.13037 17.9843C3.13037 19.598 4.43851 20.9061 6.05217 20.9061Z" fill="#171616"/>
<path d="M1.49805 18.4932L1.49806 3.50098L13.5009 3.52347V17.9844H8.45218" stroke="#171616"/>
<path d="M1.2002 17.9844H3.70459" stroke="#171616"/>
</svg>
