<svg width="20" height="18" viewBox="0 0 20 18" fill="none" xmlns="http://www.w3.org/2000/svg">
<path id="Star 1" d="M9.9072 0.231084C9.94079 0.147437 10.0592 0.147438 10.0928 0.231085L12.5629 6.38207C12.5772 6.41769 12.6106 6.44198 12.6489 6.44457L19.2621 6.89298C19.352 6.89908 19.3886 7.0117 19.3195 7.06949L14.2328 11.3194C14.2034 11.344 14.1906 11.3833 14.2 11.4206L15.8171 17.8487C15.8391 17.9361 15.7433 18.0057 15.6669 17.9578L10.0532 14.4334C10.0207 14.413 9.97934 14.413 9.94683 14.4334L4.33305 17.9578C4.25671 18.0057 4.16091 17.9361 4.1829 17.8487L5.80003 11.4206C5.8094 11.3833 5.79663 11.344 5.76717 11.3194L0.680534 7.06949C0.611361 7.0117 0.647953 6.89908 0.737886 6.89298L7.35111 6.44457C7.38941 6.44198 7.42284 6.41769 7.43714 6.38207L9.9072 0.231084Z" fill="#724233"/>
</svg>
